<?xml version="1.0" encoding="UTF-8" standalone="no"?>
<!-- Created with Inkscape (http://www.inkscape.org/) -->

<svg
   xmlns:dc="http://purl.org/dc/elements/1.1/"
   xmlns:cc="http://creativecommons.org/ns#"
   xmlns:rdf="http://www.w3.org/1999/02/22-rdf-syntax-ns#"
   xmlns:svg="http://www.w3.org/2000/svg"
   xmlns="http://www.w3.org/2000/svg"
   xmlns:sodipodi="http://sodipodi.sourceforge.net/DTD/sodipodi-0.dtd"
   xmlns:inkscape="http://www.inkscape.org/namespaces/inkscape"
   width="744.09448819"
   height="1052.3622047"
   id="svg2"
   version="1.1"
   inkscape:version="0.48.4 r9939"
   sodipodi:docname="sprite1.svg">
  <defs
     id="defs4" />
  <sodipodi:namedview
     id="base"
     pagecolor="#ffffff"
     bordercolor="#666666"
     borderopacity="1.0"
     inkscape:pageopacity="0.0"
     inkscape:pageshadow="2"
     inkscape:zoom="11.313708"
     inkscape:cx="328.08594"
     inkscape:cy="955.2083"
     inkscape:document-units="px"
     inkscape:current-layer="layer1"
     showgrid="false"
     inkscape:window-width="1366"
     inkscape:window-height="706"
     inkscape:window-x="-8"
     inkscape:window-y="-8"
     inkscape:window-maximized="1"
     showguides="true"
     inkscape:guide-bbox="true" />
  <metadata
     id="metadata7">
    <rdf:RDF>
      <cc:Work
         rdf:about="">
        <dc:format>image/svg+xml</dc:format>
        <dc:type
           rdf:resource="http://purl.org/dc/dcmitype/StillImage" />
        <dc:title />
      </cc:Work>
    </rdf:RDF>
  </metadata>
  <g
     inkscape:label="Layer 1"
     inkscape:groupmode="layer"
     id="layer1">
    <rect
       style="fill:#000000;fill-opacity:1;stroke:#000000;stroke-width:1.3639009;stroke-linecap:round;stroke-linejoin:miter;stroke-miterlimit:4;stroke-opacity:1;stroke-dasharray:none;stroke-dashoffset:0"
       id="rect3767"
       width="1.4700654"
       height="8.4278955"
       x="177.99452"
       y="22.710852" />
    <rect
       style="fill:#ffffff;fill-opacity:1;stroke:#000000;stroke-width:1.31024623;stroke-linecap:round;stroke-linejoin:miter;stroke-miterlimit:4;stroke-opacity:1;stroke-dasharray:none;stroke-dashoffset:0"
       id="rect2985"
       width="96.963348"
       height="71.724762"
       x="28.051107"
       y="-277.98425"
       ry="4.8848886"
       rx="4.8848886"
       transform="matrix(0,1,-1,0,0,0)" />
    <rect
       style="fill:#ffffff;fill-opacity:1;stroke:#000000;stroke-width:1.1752218;stroke-linecap:round;stroke-linejoin:miter;stroke-miterlimit:4;stroke-opacity:1;stroke-dasharray:none;stroke-dashoffset:0"
       id="rect2989"
       width="44.899887"
       height="84.372002"
       x="134.66049"
       y="29.048155"
       ry="1.9136639"
       rx="1.9136639" />
    <rect
       style="fill:#000000;fill-opacity:1;stroke:#000000;stroke-width:1.51084769;stroke-linecap:round;stroke-linejoin:miter;stroke-miterlimit:4;stroke-opacity:1;stroke-dasharray:none;stroke-dashoffset:0"
       id="rect3759"
       width="37.627556"
       height="66.297874"
       x="138.1562"
       y="33.316685" />
    <path
       sodipodi:type="arc"
       style="fill:#000000;fill-opacity:1;stroke:#000000;stroke-width:1;stroke-linecap:round;stroke-linejoin:miter;stroke-miterlimit:4;stroke-opacity:1;stroke-dasharray:none;stroke-dashoffset:0"
       id="path3765"
       sodipodi:cx="328.43295"
       sodipodi:cy="152.9612"
       sodipodi:rx="3.2953138"
       sodipodi:ry="3.2953138"
       d="m 331.72827,152.9612 a 3.2953138,3.2953138 0 1 1 -6.59063,0 3.2953138,3.2953138 0 1 1 6.59063,0 z"
       transform="matrix(1.222525,0,0,1.222525,-244.69341,-80.512872)" />
    <rect
       rx="3.9896722"
       ry="4.2600861"
       y="-273.39728"
       x="32.630226"
       height="62.550793"
       width="79.193611"
       id="rect3771"
       style="fill:#000000;fill-opacity:1;stroke:#000000;stroke-width:1.1057986;stroke-linecap:round;stroke-linejoin:miter;stroke-miterlimit:4;stroke-opacity:1;stroke-dasharray:none;stroke-dashoffset:0"
       transform="matrix(0,1,-1,0,0,0)" />
    <path
       transform="matrix(1.2877652,0,0,1.2877652,-180.82263,-78.388444)"
       d="m 331.72827,152.9612 a 3.2953138,3.2953138 0 1 1 -6.59063,0 3.2953138,3.2953138 0 1 1 6.59063,0 z"
       sodipodi:ry="3.2953138"
       sodipodi:rx="3.2953138"
       sodipodi:cy="152.9612"
       sodipodi:cx="328.43295"
       id="path3773"
       style="fill:#000000;fill-opacity:1;stroke:#000000;stroke-width:1;stroke-linecap:round;stroke-linejoin:miter;stroke-miterlimit:4;stroke-opacity:1;stroke-dasharray:none;stroke-dashoffset:0"
       sodipodi:type="arc" />
    <rect
       rx="0"
       ry="0"
       y="-342.36346"
       x="-73.999062"
       height="33.613552"
       width="42.557068"
       id="rect3834"
       style="fill:#000000;fill-opacity:1;stroke:none"
       transform="matrix(0,-1,-1,0,0,0)" />
    <rect
       transform="matrix(0,-1,-1,0,0,0)"
       style="fill:#666666;fill-opacity:1;stroke:none"
       id="rect3836"
       width="42.557068"
       height="33.363552"
       x="-73.271889"
       y="-341.36365"
       ry="0"
       rx="0" />
    <rect
       rx="0"
       ry="0"
       y="-340.36377"
       x="-72.516335"
       height="33.613552"
       width="42.557068"
       id="rect3838"
       style="fill:#000000;fill-opacity:1;stroke:none"
       transform="matrix(0,-1,-1,0,0,0)" />
    <rect
       style="fill:#808080;fill-opacity:1;stroke:none"
       id="rect3840"
       width="5.3351483"
       height="15.730608"
       x="308.88641"
       y="29.880293" />
    <rect
       transform="matrix(0,-1,-1,0,0,0)"
       style="fill:#000000;fill-opacity:1;stroke:none"
       id="rect3845"
       width="42.557068"
       height="33.613552"
       x="-119.61346"
       y="-342.36346"
       ry="0"
       rx="0" />
    <rect
       rx="0"
       ry="0"
       y="-341.36365"
       x="-118.88629"
       height="33.613552"
       width="42.557068"
       id="rect3847"
       style="fill:#666666;fill-opacity:1;stroke:none"
       transform="matrix(0,-1,-1,0,0,0)" />
    <rect
       transform="matrix(0,-1,-1,0,0,0)"
       style="fill:#000000;fill-opacity:1;stroke:none"
       id="rect3075"
       width="42.557068"
       height="33.613552"
       x="-118.12473"
       y="-340.36377"
       ry="0"
       rx="0" />
    <rect
       y="75.494705"
       x="308.88638"
       height="15.730609"
       width="5.3351483"
       id="rect3851"
       style="fill:#37c871;fill-opacity:1;stroke:none" />
    <path
       sodipodi:type="arc"
       style="fill:#cccccc;fill-opacity:1;stroke:none"
       id="path3859"
       sodipodi:cx="338.61575"
       sodipodi:cy="36.868458"
       sodipodi:rx="6.9826794"
       sodipodi:ry="5.3916893"
       d="m 345.59843,36.868458 a 6.9826794,5.3916893 0 1 1 -13.96536,0 6.9826794,5.3916893 0 1 1 13.96536,0 z"
       transform="matrix(1.1940305,0,0,1.1940305,-26.080096,-4.8028262)" />
    <path
       style="fill:#cccccc;fill-opacity:1;stroke:none"
       d="m 376.15015,49.596067 5.46951,-1.568459 -1.93042,-1.266831 3.23744,-0.90488 -1.87125,-1.226617 -4.78462,0 3.37821,1.146184 -1.95053,0.995368 2.71466,1.105962 z"
       id="path3864"
       inkscape:connector-curvature="0"
       sodipodi:nodetypes="cccccccccc" />
    <path
       style="fill:none;stroke:#4d4d4d;stroke-width:0.36528343;stroke-linecap:butt;stroke-linejoin:miter;stroke-opacity:1"
       d="m 373.56567,37.664764 9.3604,0"
       id="path3877"
       inkscape:connector-curvature="0"
       sodipodi:nodetypes="cc" />
    <path
       sodipodi:nodetypes="cc"
       inkscape:connector-curvature="0"
       id="path3879"
       d="m 373.56567,39.080238 9.3604,0"
       style="fill:none;stroke:#4d4d4d;stroke-width:0.36528343;stroke-linecap:butt;stroke-linejoin:miter;stroke-opacity:1" />
    <path
       style="fill:none;stroke:#4d4d4d;stroke-width:0.36528343;stroke-linecap:butt;stroke-linejoin:miter;stroke-opacity:1"
       d="m 373.56567,40.541372 9.3604,0"
       id="path3881"
       inkscape:connector-curvature="0"
       sodipodi:nodetypes="cc" />
    <path
       transform="matrix(1.1940305,0,0,1.1940305,-26.080096,14.648516)"
       d="m 345.59843,36.868458 a 6.9826794,5.3916893 0 1 1 -13.96536,0 6.9826794,5.3916893 0 1 1 13.96536,0 z"
       sodipodi:ry="5.3916893"
       sodipodi:rx="6.9826794"
       sodipodi:cy="36.868458"
       sodipodi:cx="338.61575"
       id="path3883"
       style="fill:#37c871;fill-opacity:1;stroke:none"
       sodipodi:type="arc" />
    <path
       sodipodi:nodetypes="cccccccccc"
       inkscape:connector-curvature="0"
       id="path3885"
       d="m 376.15015,69.047408 5.46951,-1.568459 -1.93042,-1.266831 3.23744,-0.904879 -1.87125,-1.226616 -4.78462,0 3.37821,1.146182 -1.95053,0.995368 2.71466,1.105964 z"
       style="fill:#37c871;fill-opacity:1;stroke:none" />
    <path
       sodipodi:nodetypes="cc"
       inkscape:connector-curvature="0"
       id="path3887"
       d="m 373.56567,57.116107 9.3604,0"
       style="fill:#3e4837;stroke:#333333;stroke-width:0.36528343;stroke-linecap:butt;stroke-linejoin:miter;stroke-opacity:1" />
    <path
       style="fill:#3e4837;stroke:#333333;stroke-width:0.36528343;stroke-linecap:butt;stroke-linejoin:miter;stroke-opacity:1"
       d="m 373.56567,58.531581 9.3604,0"
       id="path3889"
       inkscape:connector-curvature="0"
       sodipodi:nodetypes="cc" />
    <path
       sodipodi:nodetypes="cc"
       inkscape:connector-curvature="0"
       id="path3891"
       d="m 373.56567,59.992713 9.3604,0"
       style="fill:#3e4837;stroke:#333333;stroke-width:0.36528343;stroke-linecap:butt;stroke-linejoin:miter;stroke-opacity:1" />
    <path
       style="fill:#000000;fill-opacity:1;stroke:none"
       d="m 366.8986,93.376404 2.8145,-0.01702 9.0058,9.613721 -2.6e-4,1.45446 -5.99585,0 c -5.29876,0.076 -6.26868,0.66418 -5.82444,-4.693815 z"
       id="rect3893"
       inkscape:connector-curvature="0"
       sodipodi:nodetypes="ccccccc" />
    <path
       sodipodi:nodetypes="ccccccc"
       inkscape:connector-curvature="0"
       id="path3904"
       d="m 390.97457,93.376404 -2.8145,-0.01702 -9.0058,9.613721 -3.4e-4,1.45446 5.86731,0 c 5.38375,0.22168 6.63213,1.25285 5.95333,-4.693815 z"
       style="fill:#000000;fill-opacity:1;stroke:none" />
    <path
       style="fill:#000000;fill-opacity:1;stroke:none"
       d="m 371.58046,93.217014 14.72177,0.08498 -7.39394,8.011411 z"
       id="rect3908"
       inkscape:connector-curvature="0"
       sodipodi:nodetypes="cccc" />
    <rect
       style="fill:#000000;fill-opacity:1;stroke:none"
       id="rect3911"
       width="7.0775599"
       height="13.678745"
       x="375.52319"
       y="80.744125" />
    <rect
       style="fill:none;stroke:#000000;stroke-width:0.36343458;stroke-opacity:1"
       id="rect3913"
       width="24.177189"
       height="25.525679"
       x="366.86484"
       y="78.901878"
       rx="1.2855599"
       ry="1.4448498" />
    <path
       style="fill:#808080;fill-opacity:1;stroke:none"
       d="m 308.88641,45.442795 5.33515,0 0,5.168108 -2.66758,-3.875 -2.66757,3.875 z"
       id="rect3063"
       inkscape:connector-curvature="0"
       sodipodi:nodetypes="cccccc" />
    <path
       sodipodi:nodetypes="ccccc"
       inkscape:connector-curvature="0"
       id="path3077"
       d="m 306.74641,118.11246 1.38276,-0.0467 1.19084,0.83897 -0.56636,0.70472 z"
       style="fill:#000000;fill-opacity:1;stroke:none" />
    <path
       sodipodi:nodetypes="cccccc"
       inkscape:connector-curvature="0"
       id="path3066"
       d="m 308.88641,90.567795 5.33515,0 0,5.168108 -2.66758,-3.875 -2.66757,3.875 z"
       style="fill:#37c871;fill-opacity:1;stroke:none" />
    <path
       style="fill:#000000;fill-opacity:1;stroke:none"
       d="m 306.74641,72.504077 1.38276,-0.04671 1.19084,0.838964 -0.56636,0.704724 z"
       id="rect3072"
       inkscape:connector-curvature="0"
       sodipodi:nodetypes="ccccc" />
  </g>
</svg>
