<?xml version="1.0" encoding="UTF-8" standalone="no"?>
<!-- Created with Inkscape (http://www.inkscape.org/) -->

<svg
   xmlns:dc="http://purl.org/dc/elements/1.1/"
   xmlns:cc="http://creativecommons.org/ns#"
   xmlns:rdf="http://www.w3.org/1999/02/22-rdf-syntax-ns#"
   xmlns:svg="http://www.w3.org/2000/svg"
   xmlns="http://www.w3.org/2000/svg"
   xmlns:sodipodi="http://sodipodi.sourceforge.net/DTD/sodipodi-0.dtd"
   xmlns:inkscape="http://www.inkscape.org/namespaces/inkscape"
   width="744.09448819"
   height="1052.3622047"
   id="svg2"
   version="1.1"
   inkscape:version="0.48.4 r9939"
   sodipodi:docname="things.svg">
  <defs
     id="defs4" />
  <sodipodi:namedview
     id="base"
     pagecolor="#ffffff"
     bordercolor="#666666"
     borderopacity="1.0"
     inkscape:pageopacity="0.0"
     inkscape:pageshadow="2"
     inkscape:zoom="2.8284271"
     inkscape:cx="314.75007"
     inkscape:cy="994.54809"
     inkscape:document-units="px"
     inkscape:current-layer="layer1"
     showgrid="false"
     inkscape:window-width="1366"
     inkscape:window-height="706"
     inkscape:window-x="-8"
     inkscape:window-y="-8"
     inkscape:window-maximized="1"
     showguides="true"
     inkscape:guide-bbox="true" />
  <metadata
     id="metadata7">
    <rdf:RDF>
      <cc:Work
         rdf:about="">
        <dc:format>image/svg+xml</dc:format>
        <dc:type
           rdf:resource="http://purl.org/dc/dcmitype/StillImage" />
        <dc:title></dc:title>
      </cc:Work>
    </rdf:RDF>
  </metadata>
  <g
     inkscape:label="Layer 1"
     inkscape:groupmode="layer"
     id="layer1">
    <rect
       style="fill:#000000;fill-opacity:1;stroke:#000000;stroke-width:0.88572246;stroke-linecap:round;stroke-linejoin:miter;stroke-miterlimit:4;stroke-opacity:1;stroke-dasharray:none;stroke-dashoffset:0"
       id="rect3767"
       width="0.95466602"
       height="5.4731073"
       x="162.59576"
       y="22.471762" />
    <rect
       style="fill:#ffffff;fill-opacity:1;stroke:#000000;stroke-width:0.85087889;stroke-linecap:round;stroke-linejoin:miter;stroke-miterlimit:4;stroke-opacity:1;stroke-dasharray:none;stroke-dashoffset:0"
       id="rect2985"
       width="62.968369"
       height="46.578331"
       x="25.939745"
       y="-227.52948"
       ry="3.1722653"
       rx="3.1722653"
       transform="matrix(0,1,-1,0,0,0)" />
    <rect
       style="fill:#ffffff;fill-opacity:1;stroke:#000000;stroke-width:0.76319349;stroke-linecap:round;stroke-linejoin:miter;stroke-miterlimit:4;stroke-opacity:1;stroke-dasharray:none;stroke-dashoffset:0"
       id="rect2989"
       width="29.158157"
       height="54.7915"
       x="134.45448"
       y="26.587231"
       ry="1.2427406"
       rx="1.2427406" />
    <rect
       style="fill:#000000;fill-opacity:1;stroke:#000000;stroke-width:0.98115027;stroke-linecap:round;stroke-linejoin:miter;stroke-miterlimit:4;stroke-opacity:1;stroke-dasharray:none;stroke-dashoffset:0"
       id="rect3759"
       width="24.435478"
       height="43.054092"
       x="136.72461"
       y="29.35923" />
    <path
       sodipodi:type="arc"
       style="fill:#000000;fill-opacity:1;stroke:#000000;stroke-width:1;stroke-linecap:round;stroke-linejoin:miter;stroke-miterlimit:4;stroke-opacity:1;stroke-dasharray:none;stroke-dashoffset:0"
       id="path3765"
       sodipodi:cx="328.43295"
       sodipodi:cy="152.9612"
       sodipodi:rx="3.2953138"
       sodipodi:ry="3.2953138"
       d="m 331.72827,152.9612 a 3.2953138,3.2953138 0 1 1 -6.59063,0 3.2953138,3.2953138 0 1 1 6.59063,0 z"
       transform="matrix(0.79391238,0,0,0.79391238,-111.89939,-44.562117)" />
    <rect
       rx="2.5909083"
       ry="2.7665162"
       y="-224.55067"
       x="28.913443"
       height="40.620724"
       width="51.428631"
       id="rect3771"
       style="fill:#000000;fill-opacity:1;stroke:#000000;stroke-width:0.71810985;stroke-linecap:round;stroke-linejoin:miter;stroke-miterlimit:4;stroke-opacity:1;stroke-dasharray:none;stroke-dashoffset:0"
       transform="matrix(0,1,-1,0,0,0)" />
    <path
       transform="matrix(0.83627959,0,0,0.83627959,-70.421461,-43.182505)"
       d="m 331.72827,152.9612 a 3.2953138,3.2953138 0 1 1 -6.59063,0 3.2953138,3.2953138 0 1 1 6.59063,0 z"
       sodipodi:ry="3.2953138"
       sodipodi:rx="3.2953138"
       sodipodi:cy="152.9612"
       sodipodi:cx="328.43295"
       id="path3773"
       style="fill:#000000;fill-opacity:1;stroke:#000000;stroke-width:1;stroke-linecap:round;stroke-linejoin:miter;stroke-miterlimit:4;stroke-opacity:1;stroke-dasharray:none;stroke-dashoffset:0"
       sodipodi:type="arc" />
    <rect
       rx="0"
       ry="0"
       y="-269.33759"
       x="-55.778519"
       height="21.82877"
       width="27.636723"
       id="rect3834"
       style="fill:#000000;fill-opacity:1;stroke:none"
       transform="matrix(0,-1,-1,0,0,0)" />
    <rect
       transform="matrix(0,-1,-1,0,0,0)"
       style="fill:#666666;fill-opacity:1;stroke:none"
       id="rect3836"
       width="27.636723"
       height="21.82877"
       x="-55.306293"
       y="-268.68829"
       ry="0"
       rx="0" />
    <rect
       rx="0"
       ry="0"
       y="-268.03897"
       x="-54.775043"
       height="21.82877"
       width="27.636723"
       id="rect3838"
       style="fill:#000000;fill-opacity:1;stroke:none"
       transform="matrix(0,-1,-1,0,0,0)" />
    <g
       id="g3855"
       style="fill:#808080"
       transform="matrix(0.59244337,0,0,0.59244337,72.486369,10.008741)">
      <rect
         y="28.895391"
         x="295.5744"
         height="17.243027"
         width="5.8480959"
         id="rect3840"
         style="fill:#808080;fill-opacity:1;stroke:none" />
      <path
         sodipodi:nodetypes="cccccccc"
         inkscape:connector-curvature="0"
         id="rect3842"
         d="m 295.52552,46.072756 5.90301,0 -1.43692,5.747676 -0.0388,0 -1.47576,-3.650551 -1.47575,3.650551 0,0 z"
         style="fill:#808080;fill-opacity:1;stroke:none" />
    </g>
    <rect
       transform="matrix(0,-1,-1,0,0,0)"
       style="fill:#000000;fill-opacity:1;stroke:none"
       id="rect3845"
       width="27.636723"
       height="21.82877"
       x="-85.400688"
       y="-269.33759"
       ry="0"
       rx="0" />
    <rect
       rx="0"
       ry="0"
       y="-268.68829"
       x="-84.928459"
       height="21.82877"
       width="27.636723"
       id="rect3847"
       style="fill:#666666;fill-opacity:1;stroke:none"
       transform="matrix(0,-1,-1,0,0,0)" />
    <rect
       transform="matrix(0,-1,-1,0,0,0)"
       style="fill:#000000;fill-opacity:1;stroke:none"
       id="rect3849"
       width="27.636723"
       height="21.82877"
       x="-84.397209"
       y="-268.03897"
       ry="0"
       rx="0" />
    <rect
       y="56.749798"
       x="247.59744"
       height="10.215517"
       width="3.4646657"
       id="rect3851"
       style="fill:#37c871;fill-opacity:1;stroke:none" />
    <path
       sodipodi:nodetypes="cccccccc"
       inkscape:connector-curvature="0"
       id="path3853"
       d="m 247.56851,66.926409 3.4972,0 -0.8513,3.405171 -0.023,0 -0.87431,-2.162743 -0.8743,2.162743 0,0 z"
       style="fill:#37c871;fill-opacity:1;stroke:none" />
    <path
       sodipodi:type="arc"
       style="fill:#cccccc;fill-opacity:1;stroke:none"
       id="path3859"
       sodipodi:cx="338.61575"
       sodipodi:cy="36.868458"
       sodipodi:rx="6.9826794"
       sodipodi:ry="5.3916893"
       d="m 345.59843,36.868458 a 6.9826794,5.3916893 0 1 1 -13.96536,0 6.9826794,5.3916893 0 1 1 13.96536,0 z"
       transform="matrix(0.77540797,0,0,0.77540797,30.06893,4.6042751)" />
    <path
       style="fill:#cccccc;fill-opacity:1;stroke:none"
       d="m 291.27878,39.931123 3.55192,-1.018563 -1.25362,-0.822685 2.10241,-0.587632 -1.2152,-0.79657 -3.10715,0 2.19382,0.744336 -1.26668,0.646396 1.76291,0.718216 z"
       id="path3864"
       inkscape:connector-curvature="0"
       sodipodi:nodetypes="cccccccccc" />
    <path
       style="fill:none;stroke:#4d4d4d;stroke-width:0.23721644;stroke-linecap:butt;stroke-linejoin:miter;stroke-opacity:1"
       d="m 289.60041,32.18289 6.07868,0"
       id="path3877"
       inkscape:connector-curvature="0"
       sodipodi:nodetypes="cc" />
    <path
       sodipodi:nodetypes="cc"
       inkscape:connector-curvature="0"
       id="path3879"
       d="m 289.60041,33.102104 6.07868,0"
       style="fill:none;stroke:#4d4d4d;stroke-width:0.23721644;stroke-linecap:butt;stroke-linejoin:miter;stroke-opacity:1" />
    <path
       style="fill:none;stroke:#4d4d4d;stroke-width:0.23721644;stroke-linecap:butt;stroke-linejoin:miter;stroke-opacity:1"
       d="m 289.60041,34.05097 6.07868,0"
       id="path3881"
       inkscape:connector-curvature="0"
       sodipodi:nodetypes="cc" />
    <path
       transform="matrix(0.77540797,0,0,0.77540797,30.06893,17.236051)"
       d="m 345.59843,36.868458 a 6.9826794,5.3916893 0 1 1 -13.96536,0 6.9826794,5.3916893 0 1 1 13.96536,0 z"
       sodipodi:ry="5.3916893"
       sodipodi:rx="6.9826794"
       sodipodi:cy="36.868458"
       sodipodi:cx="338.61575"
       id="path3883"
       style="fill:#37c871;fill-opacity:1;stroke:none"
       sodipodi:type="arc" />
    <path
       sodipodi:nodetypes="cccccccccc"
       inkscape:connector-curvature="0"
       id="path3885"
       d="m 291.27878,52.562898 3.55192,-1.018563 -1.25362,-0.822685 2.10241,-0.587632 -1.2152,-0.796569 -3.10715,0 2.19382,0.744335 -1.26668,0.646396 1.76291,0.718217 z"
       style="fill:#37c871;fill-opacity:1;stroke:none" />
    <path
       sodipodi:nodetypes="cc"
       inkscape:connector-curvature="0"
       id="path3887"
       d="m 289.60041,44.814666 6.07868,0"
       style="fill:#3e4837;stroke:#333333;stroke-width:0.23721644;stroke-linecap:butt;stroke-linejoin:miter;stroke-opacity:1" />
    <path
       style="fill:#3e4837;stroke:#333333;stroke-width:0.23721644;stroke-linecap:butt;stroke-linejoin:miter;stroke-opacity:1"
       d="m 289.60041,45.73388 6.07868,0"
       id="path3889"
       inkscape:connector-curvature="0"
       sodipodi:nodetypes="cc" />
    <path
       sodipodi:nodetypes="cc"
       inkscape:connector-curvature="0"
       id="path3891"
       d="m 289.60041,46.682745 6.07868,0"
       style="fill:#3e4837;stroke:#333333;stroke-width:0.23721644;stroke-linecap:butt;stroke-linejoin:miter;stroke-opacity:1" />
    <path
       style="fill:#000000;fill-opacity:1;stroke:none"
       d="m 285.27079,68.362241 1.82775,-0.01105 5.8484,6.24319 -1.7e-4,0.944526 -3.89373,0 c -3.44103,0.04934 -4.0709,0.431322 -3.78241,-3.048178 z"
       id="rect3893"
       inkscape:connector-curvature="0"
       sodipodi:nodetypes="ccccccc" />
    <path
       sodipodi:nodetypes="ccccccc"
       inkscape:connector-curvature="0"
       id="path3904"
       d="m 300.90582,68.362241 -1.82775,-0.01105 -5.8484,6.24319 -2.2e-4,0.944526 3.81025,0 c 3.49623,0.143966 4.30693,0.813607 3.86612,-3.048178 z"
       style="fill:#000000;fill-opacity:1;stroke:none" />
    <path
       style="fill:#000000;fill-opacity:1;stroke:none"
       d="m 288.31121,68.258732 9.56037,0.05519 -4.80165,5.202641 z"
       id="rect3908"
       inkscape:connector-curvature="0"
       sodipodi:nodetypes="cccc" />
    <rect
       style="fill:#000000;fill-opacity:1;stroke:none"
       id="rect3911"
       width="4.5961943"
       height="8.883029"
       x="290.87164"
       y="60.158791" />
    <rect
       style="fill:none;stroke:#000000;stroke-width:0.2360158;stroke-opacity:1"
       id="rect3913"
       width="15.700759"
       height="16.576473"
       x="285.24887"
       y="58.962429"
       rx="0.83484745"
       ry="0.93829101" />
  </g>
</svg>
